<?xml version="1.0" encoding="UTF-8"?>
<!DOCTYPE svg PUBLIC "-//W3C//DTD SVG 1.1//EN" "http://www.w3.org/Graphics/SVG/1.1/DTD/svg11.dtd">
<svg version="1.2" width="162.98mm" height="162.72mm" viewBox="0 0 16298 16272" preserveAspectRatio="xMidYMid" fill-rule="evenodd" stroke-width="28.222" stroke-linejoin="round" xmlns="http://www.w3.org/2000/svg" xmlns:ooo="http://xml.openoffice.org/svg/export" xmlns:xlink="http://www.w3.org/1999/xlink" xmlns:presentation="http://sun.com/xmlns/staroffice/presentation" xmlns:smil="http://www.w3.org/2001/SMIL20/" xmlns:anim="urn:oasis:names:tc:opendocument:xmlns:animation:1.0" xml:space="preserve">
 <defs class="ClipPathGroup">
  <clipPath id="presentation_clip_path" clipPathUnits="userSpaceOnUse">
   <rect x="0" y="0" width="16298" height="16272"/>
  </clipPath>
  <clipPath id="presentation_clip_path_shrink" clipPathUnits="userSpaceOnUse">
   <rect x="16" y="16" width="16266" height="16240"/>
  </clipPath>
 </defs>
 <defs class="TextShapeIndex">
  <g ooo:slide="id1" ooo:id-list="id3 id4 id5 id6"/>
 </defs>
 <defs class="EmbeddedBulletChars">
  <g id="bullet-char-template-57356" transform="scale(0.00048828125,-0.00048828125)">
   <path d="M 580,1141 L 1163,571 580,0 -4,571 580,1141 Z"/>
  </g>
  <g id="bullet-char-template-57354" transform="scale(0.00048828125,-0.00048828125)">
   <path d="M 8,1128 L 1137,1128 1137,0 8,0 8,1128 Z"/>
  </g>
  <g id="bullet-char-template-10146" transform="scale(0.00048828125,-0.00048828125)">
   <path d="M 174,0 L 602,739 174,1481 1456,739 174,0 Z M 1358,739 L 309,1346 659,739 1358,739 Z"/>
  </g>
  <g id="bullet-char-template-10132" transform="scale(0.00048828125,-0.00048828125)">
   <path d="M 2015,739 L 1276,0 717,0 1260,543 174,543 174,936 1260,936 717,1481 1274,1481 2015,739 Z"/>
  </g>
  <g id="bullet-char-template-10007" transform="scale(0.00048828125,-0.00048828125)">
   <path d="M 0,-2 C -7,14 -16,27 -25,37 L 356,567 C 262,823 215,952 215,954 215,979 228,992 255,992 264,992 276,990 289,987 310,991 331,999 354,1012 L 381,999 492,748 772,1049 836,1024 860,1049 C 881,1039 901,1025 922,1006 886,937 835,863 770,784 769,783 710,716 594,584 L 774,223 C 774,196 753,168 711,139 L 727,119 C 717,90 699,76 672,76 641,76 570,178 457,381 L 164,-76 C 142,-110 111,-127 72,-127 30,-127 9,-110 8,-76 1,-67 -2,-52 -2,-32 -2,-23 -1,-13 0,-2 Z"/>
  </g>
  <g id="bullet-char-template-10004" transform="scale(0.00048828125,-0.00048828125)">
   <path d="M 285,-33 C 182,-33 111,30 74,156 52,228 41,333 41,471 41,549 55,616 82,672 116,743 169,778 240,778 293,778 328,747 346,684 L 369,508 C 377,444 397,411 428,410 L 1163,1116 C 1174,1127 1196,1133 1229,1133 1271,1133 1292,1118 1292,1087 L 1292,965 C 1292,929 1282,901 1262,881 L 442,47 C 390,-6 338,-33 285,-33 Z"/>
  </g>
  <g id="bullet-char-template-9679" transform="scale(0.00048828125,-0.00048828125)">
   <path d="M 813,0 C 632,0 489,54 383,161 276,268 223,411 223,592 223,773 276,916 383,1023 489,1130 632,1184 813,1184 992,1184 1136,1130 1245,1023 1353,916 1407,772 1407,592 1407,412 1353,268 1245,161 1136,54 992,0 813,0 Z"/>
  </g>
  <g id="bullet-char-template-8226" transform="scale(0.00048828125,-0.00048828125)">
   <path d="M 346,457 C 273,457 209,483 155,535 101,586 74,649 74,723 74,796 101,859 155,911 209,963 273,989 346,989 419,989 480,963 531,910 582,859 608,796 608,723 608,648 583,586 532,535 482,483 420,457 346,457 Z"/>
  </g>
  <g id="bullet-char-template-8211" transform="scale(0.00048828125,-0.00048828125)">
   <path d="M -4,459 L 1135,459 1135,606 -4,606 -4,459 Z"/>
  </g>
  <g id="bullet-char-template-61548" transform="scale(0.00048828125,-0.00048828125)">
   <path d="M 173,740 C 173,903 231,1043 346,1159 462,1274 601,1332 765,1332 928,1332 1067,1274 1183,1159 1299,1043 1357,903 1357,740 1357,577 1299,437 1183,322 1067,206 928,148 765,148 601,148 462,206 346,322 231,437 173,577 173,740 Z"/>
  </g>
 </defs>
 <g>
  <g id="id2" class="Master_Slide">
   <g id="bg-id2" class="Background"/>
   <g id="bo-id2" class="BackgroundObjects"/>
  </g>
 </g>
 <g class="SlideGroup">
  <g>
   <g id="container-id1">
    <g id="id1" class="Slide" clip-path="url(#presentation_clip_path)">
     <g class="Page">
      <g class="com.sun.star.drawing.ClosedBezierShape">
       <g id="id3">
        <rect class="BoundingBox" stroke="none" fill="none" x="402" y="402" width="15493" height="15541"/>
        <path fill="rgb(180,120,4)" stroke="none" d="M 5879,15402 C 2624,14434 402,11481 402,8149 402,3863 3863,402 8149,402 12434,402 15894,3863 15894,8149 15894,11815 13195,14942 9497,15577 8925,15672 8133,15323 8133,15212 8133,15132 8466,15021 8529,14989 12322,14799 15291,11799 15291,8149 15291,4196 12101,1005 8149,1005 4196,1005 1005,4196 1005,8149 1005,10592 2323,12878 4466,14132 4672,14228 5053,14243 5212,14243 5371,14243 5942,14212 6101,14132 6260,14053 6878,13974 7196,13894 7513,13815 7942,13751 8180,13751 8576,13751 8941,13989 9068,13974 L 9068,13942 C 9068,13894 9211,13862 9497,13862 9814,13862 10148,13974 10116,14228 L 9735,14370 C 9417,14466 9275,14450 9116,14513 8719,14640 8624,14816 8260,14974 7895,15133 7355,15132 7355,15212 7355,15259 7593,15275 7752,15291 8149,15339 8545,15656 9021,15704 9338,15736 9417,15720 9640,15704 9624,15783 9497,15942 9290,15942 8782,15942 8149,15640 7720,15640 7482,15640 7307,15736 7069,15736 6720,15736 6323,15449 6006,15259 5926,15211 5846,15164 5767,15164 5687,15164 5688,15180 5688,15196 5688,15259 6006,15355 6006,15402 6006,15434 5958,15418 5879,15402 Z"/>
       </g>
      </g>
      <g class="com.sun.star.drawing.ClosedBezierShape">
       <g id="id4">
        <rect class="BoundingBox" stroke="none" fill="none" x="1132" y="1132" width="14033" height="13716"/>
        <path fill="rgb(255,191,0)" stroke="none" d="M 9290,14624 C 12465,14069 14767,11338 14767,8149 14767,4498 11799,1529 8149,1529 4498,1529 1529,4498 1529,8149 1529,10735 3117,13085 5561,14101 5180,14148 4736,14116 4529,14021 2418,12783 1132,10561 1132,8149 1132,4275 4275,1132 8149,1132 12022,1132 15164,4275 15164,8149 15164,11640 12386,14545 8768,14847 8847,14815 8974,14656 9290,14624 Z"/>
       </g>
      </g>
      <g class="com.sun.star.drawing.ClosedBezierShape">
       <g id="id5">
        <rect class="BoundingBox" stroke="none" fill="none" x="212" y="212" width="15873" height="15874"/>
        <path fill="rgb(0,0,0)" stroke="none" d="M 9798,15704 C 13465,14958 16084,11799 16084,8149 16084,3767 12530,212 8149,212 3767,212 212,3767 212,8149 212,11592 2529,14624 5894,15609 5974,15624 6006,15640 6085,15640 6371,15640 6609,15847 6926,15847 7085,15847 7482,15799 7641,15799 8117,15799 8814,16085 9290,16085 9497,16085 9735,15926 9798,15704 Z M 5879,15402 C 2624,14434 402,11481 402,8149 402,3863 3863,402 8149,402 12434,402 15894,3863 15894,8149 15894,11815 13195,14942 9497,15577 8925,15672 8133,15323 8133,15212 8133,15132 8465,15021 8528,14989 12322,14799 15291,11799 15291,8149 15291,4196 12101,1005 8149,1005 4196,1005 1005,4196 1005,8149 1005,10592 2323,12878 4466,14132 4672,14228 5053,14243 5212,14243 5371,14243 5942,14212 6101,14132 6260,14053 6878,13974 7196,13894 7513,13815 7942,13751 8180,13751 8576,13751 8941,13989 9068,13974 L 9068,13942 C 9068,13894 9211,13862 9497,13862 9814,13862 10148,13974 10116,14228 L 9735,14370 C 9417,14466 9275,14450 9116,14513 8719,14640 8624,14816 8260,14974 7895,15133 7355,15132 7355,15212 7355,15259 7593,15275 7752,15291 8149,15339 8544,15656 9021,15704 9338,15736 9417,15720 9640,15704 9624,15783 9497,15942 9290,15942 8782,15942 8149,15640 7720,15640 7482,15640 7307,15736 7069,15736 6720,15736 6323,15449 6006,15259 5926,15211 5846,15164 5767,15164 5687,15164 5688,15180 5688,15196 5688,15259 6006,15355 6006,15402 6006,15434 5958,15418 5879,15402 Z M 9290,14624 C 12465,14069 14767,11338 14767,8149 14767,4498 11799,1529 8149,1529 4498,1529 1529,4498 1529,8149 1529,10735 3117,13085 5561,14101 5180,14148 4736,14116 4529,14021 2418,12783 1132,10561 1132,8149 1132,4275 4275,1132 8149,1132 12022,1132 15164,4275 15164,8149 15164,11640 12386,14545 8767,14847 8846,14815 8973,14656 9290,14624 Z M 5640,13926 C 3259,12942 1720,10672 1720,8149 1720,4593 4593,1720 8149,1720 11704,1720 14576,4593 14576,8149 14576,10878 12830,13291 10243,14180 10259,13894 9894,13720 9481,13720 9259,13720 9052,13799 8941,13799 8782,13799 8497,13624 8212,13624 7895,13624 7355,13752 6879,13831 6402,13911 5879,14021 5640,13926 Z M 7291,14180 C 7291,14212 7355,14228 7514,14228 7752,14243 7799,14434 7990,14434 8323,14434 8465,14291 8576,14291 L 8735,14323 8751,14291 C 8592,14180 8355,14021 8196,14021 8117,14021 8037,14037 7879,14085 7641,14148 7291,14148 7291,14180 Z M 9417,14069 C 9703,14116 9687,14212 9846,14212 9894,14212 9925,14180 9925,14132 9925,14085 9735,14037 9433,14021 L 9417,14069 Z"/>
       </g>
      </g>
      <g class="com.sun.star.drawing.ClosedBezierShape">
       <g id="id6">
        <rect class="BoundingBox" stroke="none" fill="none" x="7704" y="14102" width="796" height="255"/>
        <path fill="rgb(255,255,0)" stroke="none" d="M 7705,14197 L 7943,14149 C 7943,14229 7991,14308 8023,14356 7880,14356 7784,14229 7705,14197 Z M 8499,14229 L 8229,14340 C 8245,14260 8245,14181 8229,14102 8356,14133 8419,14181 8499,14229 Z"/>
       </g>
      </g>
     </g>
    </g>
   </g>
  </g>
 </g>
</svg>